<?xml version="1.0" encoding="UTF-8" standalone="no" ?>
<!DOCTYPE svg PUBLIC "-//W3C//DTD SVG 1.1//EN" "http://www.w3.org/Graphics/SVG/1.1/DTD/svg11.dtd">
<svg xmlns="http://www.w3.org/2000/svg" xmlns:xlink="http://www.w3.org/1999/xlink" version="1.1" width="1280" height="1024" viewBox="0 0 1280 1024" xml:space="preserve">
<desc>Created with Fabric.js 3.6.3</desc>
<defs>
</defs>
<g transform="matrix(1.9692780337941629 0 0 1.9692780337941629 640.0153846153846 512.012312418764)" id="background-logo"  >
<rect style="stroke: none; stroke-width: 1; stroke-dasharray: none; stroke-linecap: butt; stroke-dashoffset: 0; stroke-linejoin: miter; stroke-miterlimit: 4; fill: rgb(255,255,248); fill-rule: nonzero; opacity: 1;"  paint-order="stroke"  x="-325" y="-260" rx="0" ry="0" width="650" height="520" />
</g>
<g transform="matrix(1.9692780337941629 0 0 1.9692780337941629 814.288053280392 508.3421689471819)" id="text-logo-path"  >
<path style="stroke: none; stroke-width: 0; stroke-dasharray: none; stroke-linecap: butt; stroke-dashoffset: 0; stroke-linejoin: miter; stroke-miterlimit: 4; fill: rgb(11,60,96); fill-rule: nonzero; opacity: 1;"  paint-order="stroke"  transform=" translate(-183.51500000000001, 15.295)" d="M 1.93 -15.53 L 1.93 -15.53 Q 1.93 -18.7 3.19 -21.56 Q 4.44 -24.41 6.61 -26.52 Q 8.79 -28.63 11.89 -29.88 Q 14.99 -31.14 18.5 -31.14 L 18.5 -31.14 Q 23.29 -31.14 27.04 -29.08 Q 30.78 -27.03 32.89 -23.49 L 32.89 -23.49 L 26.63 -19.84 Q 25.51 -21.99 23.42 -23.24 Q 21.34 -24.48 18.5 -24.48 L 18.5 -24.48 Q 14.52 -24.48 11.96 -21.92 Q 9.4 -19.36 9.4 -15.53 L 9.4 -15.53 Q 9.4 -13.12 10.55 -11.03 Q 11.69 -8.94 13.79 -7.67 Q 15.89 -6.39 18.5 -6.39 L 18.5 -6.39 Q 21.23 -6.39 23.3 -7.65 Q 25.38 -8.9 26.54 -11.03 L 26.54 -11.03 L 32.81 -7.43 Q 30.65 -3.82 26.92 -1.64 Q 23.18 0.55 18.5 0.55 L 18.5 0.55 Q 14.96 0.55 11.88 -0.7 Q 8.79 -1.96 6.61 -4.1 Q 4.44 -6.24 3.19 -9.21 Q 1.93 -12.17 1.93 -15.53 Z M 41.97 0 L 34.15 0 L 47.24 -30.61 L 55.46 -30.61 L 68.6 0 L 60.73 0 L 58.75 -4.77 L 43.99 -4.77 L 41.97 0 Z M 51.42 -22.24 L 46.56 -10.81 L 56.18 -10.81 L 51.42 -22.24 Z M 80.99 0 L 73.61 0 L 73.61 -30.61 L 81.78 -30.61 L 92.46 -8.15 L 103.07 -30.61 L 111.31 -30.61 L 111.31 0 L 103.89 0 L 103.89 -15.62 L 96.55 0 L 88.31 0 L 80.99 -15.62 L 80.99 0 Z M 116.13 -15.29 L 116.13 -15.29 Q 116.13 -18.5 117.37 -21.42 Q 118.61 -24.35 120.72 -26.48 Q 122.83 -28.61 125.75 -29.87 Q 128.67 -31.14 131.9 -31.14 L 131.9 -31.14 Q 135.09 -31.14 138.02 -29.87 Q 140.95 -28.61 143.06 -26.48 Q 145.17 -24.35 146.44 -21.41 Q 147.7 -18.48 147.7 -15.29 L 147.7 -15.29 Q 147.7 -12.08 146.45 -9.15 Q 145.2 -6.22 143.07 -4.1 Q 140.95 -1.98 138.02 -0.71 Q 135.09 0.55 131.9 0.55 L 131.9 0.55 Q 127.6 0.55 123.96 -1.58 Q 120.32 -3.71 118.22 -7.35 Q 116.13 -10.99 116.13 -15.29 Z M 122.87 -15.29 L 122.87 -15.29 Q 122.87 -11.56 125.52 -8.93 Q 128.17 -6.31 131.9 -6.31 L 131.9 -6.31 Q 135.59 -6.31 138.23 -8.93 Q 140.87 -11.56 140.87 -15.29 L 140.87 -15.29 Q 140.87 -18.98 138.23 -21.62 Q 135.59 -24.26 131.9 -24.26 L 131.9 -24.26 Q 128.17 -24.26 125.52 -21.63 Q 122.87 -19.01 122.87 -15.29 Z M 172.24 -23.75 L 161.41 -23.75 L 161.41 -30.61 L 190.57 -30.61 L 190.57 -23.75 L 179.71 -23.75 L 179.71 0 L 172.24 0 L 172.24 -23.75 Z M 191.82 -15.29 L 191.82 -15.29 Q 191.82 -18.5 193.06 -21.42 Q 194.3 -24.35 196.41 -26.48 Q 198.52 -28.61 201.45 -29.87 Q 204.37 -31.14 207.6 -31.14 L 207.6 -31.14 Q 210.78 -31.14 213.72 -29.87 Q 216.65 -28.61 218.76 -26.48 Q 220.87 -24.35 222.13 -21.41 Q 223.4 -18.48 223.4 -15.29 L 223.4 -15.29 Q 223.4 -12.08 222.14 -9.15 Q 220.89 -6.22 218.77 -4.1 Q 216.65 -1.98 213.72 -0.71 Q 210.78 0.55 207.6 0.55 L 207.6 0.55 Q 203.29 0.55 199.65 -1.58 Q 196.02 -3.71 193.92 -7.35 Q 191.82 -10.99 191.82 -15.29 Z M 198.57 -15.29 L 198.57 -15.29 Q 198.57 -11.56 201.21 -8.93 Q 203.86 -6.31 207.6 -6.31 L 207.6 -6.31 Q 211.29 -6.31 213.93 -8.93 Q 216.56 -11.56 216.56 -15.29 L 216.56 -15.29 Q 216.56 -18.98 213.93 -21.62 Q 211.29 -24.26 207.6 -24.26 L 207.6 -24.26 Q 203.86 -24.26 201.21 -21.63 Q 198.57 -19.01 198.57 -15.29 Z M 237.41 -15.53 L 237.41 -15.53 Q 237.41 -18.7 238.67 -21.56 Q 239.92 -24.41 242.09 -26.52 Q 244.27 -28.63 247.37 -29.88 Q 250.47 -31.14 253.98 -31.14 L 253.98 -31.14 Q 258.77 -31.14 262.52 -29.08 Q 266.26 -27.03 268.37 -23.49 L 268.37 -23.49 L 262.11 -19.84 Q 260.99 -21.99 258.9 -23.24 Q 256.82 -24.48 253.98 -24.48 L 253.98 -24.48 Q 250 -24.48 247.45 -21.92 Q 244.89 -19.36 244.89 -15.53 L 244.89 -15.53 Q 244.89 -13.12 246.03 -11.03 Q 247.17 -8.94 249.27 -7.67 Q 251.37 -6.39 253.98 -6.39 L 253.98 -6.39 Q 256.71 -6.39 258.78 -7.65 Q 260.86 -8.9 262.02 -11.03 L 262.02 -11.03 L 268.29 -7.43 Q 266.13 -3.82 262.4 -1.64 Q 258.66 0.55 253.98 0.55 L 253.98 0.55 Q 250.44 0.55 247.36 -0.7 Q 244.27 -1.96 242.09 -4.1 Q 239.92 -6.24 238.67 -9.21 Q 237.41 -12.17 237.41 -15.53 Z M 270.35 -15.29 L 270.35 -15.29 Q 270.35 -18.5 271.59 -21.42 Q 272.83 -24.35 274.94 -26.48 Q 277.05 -28.61 279.98 -29.87 Q 282.9 -31.14 286.13 -31.14 L 286.13 -31.14 Q 289.31 -31.14 292.25 -29.87 Q 295.18 -28.61 297.29 -26.48 Q 299.4 -24.35 300.66 -21.41 Q 301.93 -18.48 301.93 -15.29 L 301.93 -15.29 Q 301.93 -12.08 300.67 -9.15 Q 299.42 -6.22 297.3 -4.1 Q 295.18 -1.98 292.25 -0.71 Q 289.31 0.55 286.13 0.55 L 286.13 0.55 Q 281.82 0.55 278.18 -1.58 Q 274.55 -3.71 272.45 -7.35 Q 270.35 -10.99 270.35 -15.29 Z M 277.1 -15.29 L 277.1 -15.29 Q 277.1 -11.56 279.74 -8.93 Q 282.39 -6.31 286.13 -6.31 L 286.13 -6.31 Q 289.82 -6.31 292.46 -8.93 Q 295.09 -11.56 295.09 -15.29 L 295.09 -15.29 Q 295.09 -18.98 292.46 -21.62 Q 289.82 -24.26 286.13 -24.26 L 286.13 -24.26 Q 282.39 -24.26 279.74 -21.63 Q 277.1 -19.01 277.1 -15.29 Z M 320.32 0 L 306.78 0 L 306.78 -30.56 L 320.32 -30.61 Q 320.38 -30.61 320.45 -30.61 L 320.45 -30.61 Q 324.07 -30.63 327.08 -29.49 L 327.08 -29.49 Q 330.14 -28.34 332.18 -26.3 Q 334.23 -24.26 335.35 -21.45 Q 336.47 -18.63 336.47 -15.34 L 336.47 -15.34 Q 336.47 -10.92 334.43 -7.43 Q 332.4 -3.93 328.71 -1.97 Q 325.02 0 320.32 0 L 320.32 0 Z M 314.17 -23.75 L 314.17 -6.83 L 320.32 -6.83 Q 324.18 -6.83 326.59 -9.17 Q 329 -11.51 329 -15.34 L 329 -15.34 Q 329 -19.38 326.66 -21.57 Q 324.32 -23.75 320.32 -23.75 L 320.32 -23.75 L 314.17 -23.75 Z M 365.1 0 L 341.65 0 L 341.65 -30.61 L 365.1 -30.61 L 365.1 -23.75 L 349.04 -23.75 L 349.04 -18.5 L 362.44 -18.5 L 362.44 -12.11 L 349.04 -12.11 L 349.04 -6.83 L 365.1 -6.83 L 365.1 0 Z" stroke-linecap="round" />
</g>
<g transform="matrix(0.9410189727336256 0 0 0.9410189727336256 276.394970288698 512.012312418764)" id="logo-logo"  >
<g style=""  paint-order="stroke"   >
		<g transform="matrix(2.682531615624564 0 0 -2.682531615624564 117.56074091551949 7.007309086334516)"  >
<path style="stroke: none; stroke-width: 1; stroke-dasharray: none; stroke-linecap: butt; stroke-dashoffset: 0; stroke-linejoin: miter; stroke-miterlimit: 4; fill: rgb(11,60,96); fill-rule: nonzero; opacity: 1;"  paint-order="stroke"  transform=" translate(-4.820499999999999, -2.6695)" d="m 0 0 h 13.941 l 5.34 5.339 H 5.339 H -9.64 V 0 Z" stroke-linecap="round" />
</g>
		<g transform="matrix(2.682531615624564 0 0 -2.682531615624564 -117.56342344713516 7.007577339496123)"  >
<path style="stroke: none; stroke-width: 1; stroke-dasharray: none; stroke-linecap: butt; stroke-dashoffset: 0; stroke-linejoin: miter; stroke-miterlimit: 4; fill: rgb(11,60,96); fill-rule: nonzero; opacity: 1;"  paint-order="stroke"  transform=" translate(-0.5195000000000007, 2.6695)" d="m 0 0 h -13.94 l 5.339 -5.339 h 13.94 h 9.64 V 0 Z" stroke-linecap="round" />
</g>
		<g transform="matrix(2.682531615624564 0 0 -2.682531615624564 -103.06702259630009 36.00601235755923)"  >
<path style="stroke: none; stroke-width: 1; stroke-dasharray: none; stroke-linecap: butt; stroke-dashoffset: 0; stroke-linejoin: miter; stroke-miterlimit: 4; fill: rgb(11,60,96); fill-rule: nonzero; opacity: 1;"  paint-order="stroke"  transform=" translate(4.886000000000001, 2.6695)" d="m 0 0 h -13.941 l 5.34 -5.339 h 12.77 l 0 5.339 z" stroke-linecap="round" />
</g>
		<g transform="matrix(2.682531615624564 0 0 -2.682531615624564 103.05870674829146 36.00574410439762)"  >
<path style="stroke: none; stroke-width: 1; stroke-dasharray: none; stroke-linecap: butt; stroke-dashoffset: 0; stroke-linejoin: miter; stroke-miterlimit: 4; fill: rgb(11,60,96); fill-rule: nonzero; opacity: 1;"  paint-order="stroke"  transform=" translate(3.7154999999999987, -2.6695)" d="M 0 0 L 5.339 5.339 H -8.601 H -12.77 V 0 Z" stroke-linecap="round" />
</g>
		<g transform="matrix(2.682531615624564 0 0 -2.682531615624564 88.56203764429483 65.00525213510693)"  >
<path style="stroke: none; stroke-width: 1; stroke-dasharray: none; stroke-linecap: butt; stroke-dashoffset: 0; stroke-linejoin: miter; stroke-miterlimit: 4; fill: rgb(11,60,96); fill-rule: nonzero; opacity: 1;"  paint-order="stroke"  transform=" translate(-1.6895000000000002, -2.6695)" d="M 0 0 L 5.01 5.01 L 5.339 5.339 H -1.96 L -1.96 0 Z" stroke-linecap="round" />
</g>
		<g transform="matrix(2.682531615624564 0 0 -2.682531615624564 -88.56498842907206 65.00552038826854)"  >
<path style="stroke: none; stroke-width: 1; stroke-dasharray: none; stroke-linecap: butt; stroke-dashoffset: 0; stroke-linejoin: miter; stroke-miterlimit: 4; fill: rgb(11,60,96); fill-rule: nonzero; opacity: 1;"  paint-order="stroke"  transform=" translate(-3.6494999999999997, 2.6694999999999993)" d="m 0 0 l 0.329 -0.329 l 5.01 -5.01 h 1.96 l 0 5.339 z" stroke-linecap="round" />
</g>
		<g transform="matrix(2.682531615624564 0 0 -2.682531615624564 -0.0009388860655121789 -125.24605986770314)"  >
<path style="stroke: none; stroke-width: 1; stroke-dasharray: none; stroke-linecap: butt; stroke-dashoffset: 0; stroke-linejoin: miter; stroke-miterlimit: 4; fill: rgb(11,60,96); fill-rule: nonzero; opacity: 1;"  paint-order="stroke"  transform=" translate(0, 3.813)" d="M 0 0 L 0.992 -2.852 L 4.009 -2.913 L 1.604 -4.737 L 2.478 -7.626 L 0 -5.902 l -2.478 -1.724 l 0.874 2.889 l -2.405 1.824 l 3.017 0.061 z" stroke-linecap="round" />
</g>
		<g transform="matrix(2.682531615624564 0 0 -2.682531615624564 -29.720974908731648 -106.21939962440115)"  >
<path style="stroke: none; stroke-width: 1; stroke-dasharray: none; stroke-linecap: butt; stroke-dashoffset: 0; stroke-linejoin: miter; stroke-miterlimit: 4; fill: rgb(11,60,96); fill-rule: nonzero; opacity: 1;"  paint-order="stroke"  transform=" translate(-0.0004999999999997229, 3.813)" d="M 0 0 L 0.992 -2.852 L 4.01 -2.913 L 1.605 -4.736 L 2.479 -7.626 L 0 -5.902 l -2.478 -1.724 l 0.874 2.89 l -2.405 1.823 l 3.019 0.061 z" stroke-linecap="round" />
</g>
		<g transform="matrix(2.682531615624564 0 0 -2.682531615624564 29.719097136600567 -106.21939962440115)"  >
<path style="stroke: none; stroke-width: 1; stroke-dasharray: none; stroke-linecap: butt; stroke-dashoffset: 0; stroke-linejoin: miter; stroke-miterlimit: 4; fill: rgb(11,60,96); fill-rule: nonzero; opacity: 1;"  paint-order="stroke"  transform=" translate(-0.0004999999999997229, 3.813)" d="M 0 0 L 0.991 -2.852 L 4.01 -2.913 L 1.603 -4.736 L 2.477 -7.626 L 0 -5.902 l -2.478 -1.724 l 0.874 2.89 l -2.405 1.823 l 3.017 0.061 z" stroke-linecap="round" />
</g>
		<g transform="matrix(2.682531615624564 0 0 -2.682531615624564 -0.0006706329039047887 -39.496254242648206)"  >
<path style="stroke: none; stroke-width: 1; stroke-dasharray: none; stroke-linecap: butt; stroke-dashoffset: 0; stroke-linejoin: miter; stroke-miterlimit: 4; fill: rgb(211,44,29); fill-rule: nonzero; opacity: 1;"  paint-order="stroke"  transform=" translate(-2.6695, 23.092)" d="m 0 0 v -32.419 v -11.096 l 2.669 -2.669 l 2.67 2.669 V -32.419 V 0 Z" stroke-linecap="round" />
</g>
		<g transform="matrix(2.682531615624564 0 0 -2.682531615624564 -28.64662099667396 -39.68537272154981)"  >
<path style="stroke: none; stroke-width: 1; stroke-dasharray: none; stroke-linecap: butt; stroke-dashoffset: 0; stroke-linejoin: miter; stroke-miterlimit: 4; fill: rgb(211,44,29); fill-rule: nonzero; opacity: 1;"  paint-order="stroke"  transform=" translate(-2.6695, -9.397499999999999)" d="M 0 0 V -0.417 L 5.339 -5.756 V 0 V 24.551 H 0 Z" stroke-linecap="round" />
</g>
		<g transform="matrix(2.682531615624564 0 0 -2.682531615624564 28.642597199250474 -39.68483621522671)"  >
<path style="stroke: none; stroke-width: 1; stroke-dasharray: none; stroke-linecap: butt; stroke-dashoffset: 0; stroke-linejoin: miter; stroke-miterlimit: 4; fill: rgb(211,44,29); fill-rule: nonzero; opacity: 1;"  paint-order="stroke"  transform=" translate(-2.669, 15.154)" d="m 0 0 v -24.551 v -5.757 l 5.338 5.339 V -24.551 V 0 Z" stroke-linecap="round" />
</g>
		<g transform="matrix(2.682531615624564 0 0 -2.682531615624564 -28.64662099667396 57.47806842166446)"  >
<path style="stroke: none; stroke-width: 1; stroke-dasharray: none; stroke-linecap: butt; stroke-dashoffset: 0; stroke-linejoin: miter; stroke-miterlimit: 4; fill: rgb(211,44,29); fill-rule: nonzero; opacity: 1;"  paint-order="stroke"  transform=" translate(-2.6695, 21.067)" d="m 0 0 v -36.795 l 5.339 -5.339 v 36.795 z" stroke-linecap="round" />
</g>
		<g transform="matrix(2.682531615624564 0 0 -2.682531615624564 -0.0009388860655121789 82.54283907857572)"  >
<path style="stroke: none; stroke-width: 1; stroke-dasharray: none; stroke-linecap: butt; stroke-dashoffset: 0; stroke-linejoin: miter; stroke-miterlimit: 4; fill: rgb(211,44,29); fill-rule: nonzero; opacity: 1;"  paint-order="stroke"  transform=" translate(0, 17.063000000000002)" d="M 0 0 L -2.669 2.669 V -34.126 L 0 -36.795 L 2.669 -34.126 V 2.669 Z" stroke-linecap="round" />
</g>
		<g transform="matrix(2.682531615624564 0 0 -2.682531615624564 28.642597199250474 57.47780016850285)"  >
<path style="stroke: none; stroke-width: 1; stroke-dasharray: none; stroke-linecap: butt; stroke-dashoffset: 0; stroke-linejoin: miter; stroke-miterlimit: 4; fill: rgb(211,44,29); fill-rule: nonzero; opacity: 1;"  paint-order="stroke"  transform=" translate(-2.669, 15.7275)" d="m 0 0 v -36.794 l 5.338 5.338 V 5.339 Z" stroke-linecap="round" />
</g>
		<g transform="matrix(2.682531615624564 0 0 -2.682531615624564 -57.291766600959306 42.595651271340984)"  >
<path style="stroke: none; stroke-width: 1; stroke-dasharray: none; stroke-linecap: butt; stroke-dashoffset: 0; stroke-linejoin: miter; stroke-miterlimit: 4; fill: rgb(211,44,29); fill-rule: nonzero; opacity: 1;"  paint-order="stroke"  transform=" translate(2.6695, -5.684500000000002)" d="m 0 0 v 5.472 v 5.339 v 5.471 v 5.339 H -5.339 V 16.282 V 10.811 V 5.472 V 0 V -4.914 L 0 -10.252 v 4.913 z" stroke-linecap="round" />
</g>
		<g transform="matrix(2.682531615624564 0 0 -2.682531615624564 57.28693804405111 42.595651271340984)"  >
<path style="stroke: none; stroke-width: 1; stroke-dasharray: none; stroke-linecap: butt; stroke-dashoffset: 0; stroke-linejoin: miter; stroke-miterlimit: 4; fill: rgb(211,44,29); fill-rule: nonzero; opacity: 1;"  paint-order="stroke"  transform=" translate(2.6695, -5.684500000000002)" d="m 0 0 v 5.472 v 5.339 v 5.471 v 5.339 H -5.339 V 16.282 V 10.811 V 5.472 V 0 V -5.339 V -10.252 L 0 -4.914 Z" stroke-linecap="round" />
</g>
</g>
</g>
</svg>