<?xml version="1.0" encoding="UTF-8" standalone="no" ?>
<!DOCTYPE svg PUBLIC "-//W3C//DTD SVG 1.1//EN" "http://www.w3.org/Graphics/SVG/1.1/DTD/svg11.dtd">
<svg xmlns="http://www.w3.org/2000/svg" xmlns:xlink="http://www.w3.org/1999/xlink" version="1.1" width="1280" height="1024" viewBox="0 0 1280 1024" xml:space="preserve">
<desc>Created with Fabric.js 3.6.3</desc>
<defs>
</defs>
<g transform="matrix(1.9692780337941629 0 0 1.9692780337941629 640.0153846153846 512.012312418764)" id="background-logo"  >
<rect style="stroke: none; stroke-width: 1; stroke-dasharray: none; stroke-linecap: butt; stroke-dashoffset: 0; stroke-linejoin: miter; stroke-miterlimit: 4; fill: rgb(255,255,248); fill-rule: nonzero; opacity: 1;"  paint-order="stroke"  x="-325" y="-260" rx="0" ry="0" width="650" height="520" />
</g>
<g transform="matrix(1.9692780337941629 0 0 1.9692780337941629 814.288053280392 508.3421689471819)" id="text-logo-path"  >
<path style="stroke: none; stroke-width: 0; stroke-dasharray: none; stroke-linecap: butt; stroke-dashoffset: 0; stroke-linejoin: miter; stroke-miterlimit: 4; fill: rgb(11,60,96); fill-rule: nonzero; opacity: 1;"  paint-order="stroke"  transform=" translate(-183.51500000000001, 15.295)" d="M 1.93 -15.53 L 1.93 -15.53 Q 1.93 -18.7 3.19 -21.56 Q 4.44 -24.41 6.61 -26.52 Q 8.79 -28.63 11.89 -29.88 Q 14.99 -31.14 18.5 -31.14 L 18.5 -31.14 Q 23.29 -31.14 27.04 -29.08 Q 30.78 -27.03 32.89 -23.49 L 32.89 -23.49 L 26.63 -19.84 Q 25.51 -21.99 23.42 -23.24 Q 21.34 -24.48 18.5 -24.48 L 18.5 -24.48 Q 14.52 -24.48 11.96 -21.92 Q 9.4 -19.36 9.4 -15.53 L 9.4 -15.53 Q 9.4 -13.12 10.55 -11.03 Q 11.69 -8.94 13.79 -7.67 Q 15.89 -6.39 18.5 -6.39 L 18.5 -6.39 Q 21.23 -6.39 23.3 -7.65 Q 25.38 -8.9 26.54 -11.03 L 26.54 -11.03 L 32.81 -7.43 Q 30.65 -3.82 26.92 -1.64 Q 23.18 0.55 18.5 0.55 L 18.5 0.55 Q 14.96 0.55 11.88 -0.7 Q 8.79 -1.96 6.61 -4.1 Q 4.44 -6.24 3.19 -9.21 Q 1.93 -12.17 1.93 -15.53 Z M 41.97 0 L 34.15 0 L 47.24 -30.61 L 55.46 -30.61 L 68.6 0 L 60.73 0 L 58.75 -4.77 L 43.99 -4.77 L 41.97 0 Z M 51.42 -22.24 L 46.56 -10.81 L 56.18 -10.81 L 51.42 -22.24 Z M 80.99 0 L 73.61 0 L 73.61 -30.61 L 81.78 -30.61 L 92.46 -8.15 L 103.07 -30.61 L 111.31 -30.61 L 111.31 0 L 103.89 0 L 103.89 -15.62 L 96.55 0 L 88.31 0 L 80.99 -15.62 L 80.99 0 Z M 116.13 -15.29 L 116.13 -15.29 Q 116.13 -18.5 117.37 -21.42 Q 118.61 -24.35 120.72 -26.48 Q 122.83 -28.61 125.75 -29.87 Q 128.67 -31.14 131.9 -31.14 L 131.9 -31.14 Q 135.09 -31.14 138.02 -29.87 Q 140.95 -28.61 143.06 -26.48 Q 145.17 -24.35 146.44 -21.41 Q 147.7 -18.48 147.7 -15.29 L 147.7 -15.29 Q 147.7 -12.08 146.45 -9.15 Q 145.2 -6.22 143.07 -4.1 Q 140.95 -1.98 138.02 -0.71 Q 135.09 0.55 131.9 0.55 L 131.9 0.55 Q 127.6 0.55 123.96 -1.58 Q 120.32 -3.71 118.22 -7.35 Q 116.13 -10.99 116.13 -15.29 Z M 122.87 -15.29 L 122.87 -15.29 Q 122.87 -11.56 125.52 -8.93 Q 128.17 -6.31 131.9 -6.31 L 131.9 -6.31 Q 135.59 -6.31 138.23 -8.93 Q 140.87 -11.56 140.87 -15.29 L 140.87 -15.29 Q 140.87 -18.98 138.23 -21.62 Q 135.59 -24.26 131.9 -24.26 L 131.9 -24.26 Q 128.17 -24.26 125.52 -21.63 Q 122.87 -19.01 122.87 -15.29 Z M 172.24 -23.75 L 161.41 -23.75 L 161.41 -30.61 L 190.57 -30.61 L 190.57 -23.75 L 179.71 -23.75 L 179.71 0 L 172.24 0 L 172.24 -23.75 Z M 191.82 -15.29 L 191.82 -15.29 Q 191.82 -18.5 193.06 -21.42 Q 194.3 -24.35 196.41 -26.48 Q 198.52 -28.61 201.45 -29.87 Q 204.37 -31.14 207.6 -31.14 L 207.6 -31.14 Q 210.78 -31.14 213.72 -29.87 Q 216.65 -28.61 218.76 -26.48 Q 220.87 -24.35 222.13 -21.41 Q 223.4 -18.48 223.4 -15.29 L 223.4 -15.29 Q 223.4 -12.08 222.14 -9.15 Q 220.89 -6.22 218.77 -4.1 Q 216.65 -1.98 213.72 -0.71 Q 210.78 0.55 207.6 0.55 L 207.6 0.55 Q 203.29 0.55 199.65 -1.58 Q 196.02 -3.71 193.92 -7.35 Q 191.82 -10.99 191.82 -15.29 Z M 198.57 -15.29 L 198.57 -15.29 Q 198.57 -11.56 201.21 -8.93 Q 203.86 -6.31 207.6 -6.31 L 207.6 -6.31 Q 211.29 -6.31 213.93 -8.93 Q 216.56 -11.56 216.56 -15.29 L 216.56 -15.29 Q 216.56 -18.98 213.93 -21.62 Q 211.29 -24.26 207.6 -24.26 L 207.6 -24.26 Q 203.86 -24.26 201.21 -21.63 Q 198.57 -19.01 198.57 -15.29 Z M 237.41 -15.53 L 237.41 -15.53 Q 237.41 -18.7 238.67 -21.56 Q 239.92 -24.41 242.09 -26.52 Q 244.27 -28.63 247.37 -29.88 Q 250.47 -31.14 253.98 -31.14 L 253.98 -31.14 Q 258.77 -31.14 262.52 -29.08 Q 266.26 -27.03 268.37 -23.49 L 268.37 -23.49 L 262.11 -19.84 Q 260.99 -21.99 258.9 -23.24 Q 256.82 -24.48 253.98 -24.48 L 253.98 -24.48 Q 250 -24.48 247.45 -21.92 Q 244.89 -19.36 244.89 -15.53 L 244.89 -15.53 Q 244.89 -13.12 246.03 -11.03 Q 247.17 -8.94 249.27 -7.67 Q 251.37 -6.39 253.98 -6.39 L 253.98 -6.39 Q 256.71 -6.39 258.78 -7.65 Q 260.86 -8.9 262.02 -11.03 L 262.02 -11.03 L 268.29 -7.43 Q 266.13 -3.82 262.4 -1.64 Q 258.66 0.55 253.98 0.55 L 253.98 0.55 Q 250.44 0.55 247.36 -0.7 Q 244.27 -1.96 242.09 -4.1 Q 239.92 -6.24 238.67 -9.21 Q 237.41 -12.17 237.41 -15.53 Z M 270.35 -15.29 L 270.35 -15.29 Q 270.35 -18.5 271.59 -21.42 Q 272.83 -24.35 274.94 -26.48 Q 277.05 -28.61 279.98 -29.87 Q 282.9 -31.14 286.13 -31.14 L 286.13 -31.14 Q 289.31 -31.14 292.25 -29.87 Q 295.18 -28.61 297.29 -26.48 Q 299.4 -24.35 300.66 -21.41 Q 301.93 -18.48 301.93 -15.29 L 301.93 -15.29 Q 301.93 -12.08 300.67 -9.15 Q 299.42 -6.22 297.3 -4.1 Q 295.18 -1.98 292.25 -0.71 Q 289.31 0.55 286.13 0.55 L 286.13 0.55 Q 281.82 0.55 278.18 -1.58 Q 274.55 -3.71 272.45 -7.35 Q 270.35 -10.99 270.35 -15.29 Z M 277.1 -15.29 L 277.1 -15.29 Q 277.1 -11.56 279.74 -8.93 Q 282.39 -6.31 286.13 -6.31 L 286.13 -6.31 Q 289.82 -6.31 292.46 -8.93 Q 295.09 -11.56 295.09 -15.29 L 295.09 -15.29 Q 295.09 -18.98 292.46 -21.62 Q 289.82 -24.26 286.13 -24.26 L 286.13 -24.26 Q 282.39 -24.26 279.74 -21.63 Q 277.1 -19.01 277.1 -15.29 Z M 320.32 0 L 306.78 0 L 306.78 -30.56 L 320.32 -30.61 Q 320.38 -30.61 320.45 -30.61 L 320.45 -30.61 Q 324.07 -30.63 327.08 -29.49 L 327.08 -29.49 Q 330.14 -28.34 332.18 -26.3 Q 334.23 -24.26 335.35 -21.45 Q 336.47 -18.63 336.47 -15.34 L 336.47 -15.34 Q 336.47 -10.92 334.43 -7.43 Q 332.4 -3.93 328.71 -1.97 Q 325.02 0 320.32 0 L 320.32 0 Z M 314.17 -23.75 L 314.17 -6.83 L 320.32 -6.83 Q 324.18 -6.83 326.59 -9.17 Q 329 -11.51 329 -15.34 L 329 -15.34 Q 329 -19.38 326.66 -21.57 Q 324.32 -23.75 320.32 -23.75 L 320.32 -23.75 L 314.17 -23.75 Z M 365.1 0 L 341.65 0 L 341.65 -30.61 L 365.1 -30.61 L 365.1 -23.75 L 349.04 -23.75 L 349.04 -18.5 L 362.44 -18.5 L 362.44 -12.11 L 349.04 -12.11 L 349.04 -6.83 L 365.1 -6.83 L 365.1 0 Z" stroke-linecap="round" />
</g>
<g transform="matrix(0.9410189727336256 0 0 0.9410189727336256 276.39497028869806 512.012312418764)" id="logo-logo"  >
<g style=""  paint-order="stroke"   >
		<g transform="matrix(2.682531615624564 0 0 -2.682531615624564 117.56074091551949 7.007309086334516)"  >
<path style="stroke: none; stroke-width: 1; stroke-dasharray: none; stroke-linecap: butt; stroke-dashoffset: 0; stroke-linejoin: miter; stroke-miterlimit: 4; fill: rgb(11,60,96); fill-rule: nonzero; opacity: 1;"  paint-order="stroke"  transform=" translate(-4.820499999999999, -2.6695)" d="m 0 0 h 13.941 l 5.34 5.339 H 5.339 H -9.64 V 0 Z" stroke-linecap="round" />
</g>
		<g transform="matrix(2.682531615624564 0 0 -2.682531615624564 -117.56342344713516 7.007577339496123)"  >
<path style="stroke: none; stroke-width: 1; stroke-dasharray: none; stroke-linecap: butt; stroke-dashoffset: 0; stroke-linejoin: miter; stroke-miterlimit: 4; fill: rgb(11,60,96); fill-rule: nonzero; opacity: 1;"  paint-order="stroke"  transform=" translate(-0.5195000000000007, 2.6695)" d="m 0 0 h -13.94 l 5.339 -5.339 h 13.94 h 9.64 V 0 Z" stroke-linecap="round" />
</g>
		<g transform="matrix(2.682531615624564 0 0 -2.682531615624564 -103.06702259630009 36.00601235755923)"  >
<path style="stroke: none; stroke-width: 1; stroke-dasharray: none; stroke-linecap: butt; stroke-dashoffset: 0; stroke-linejoin: miter; stroke-miterlimit: 4; fill: rgb(11,60,96); fill-rule: nonzero; opacity: 1;"  paint-order="stroke"  transform=" translate(4.886000000000001, 2.6695)" d="m 0 0 h -13.941 l 5.34 -5.339 h 12.77 l 0 5.339 z" stroke-linecap="round" />
</g>
		<g transform="matrix(2.682531615624564 0 0 -2.682531615624564 103.05870674829146 36.00574410439762)"  >
<path style="stroke: none; stroke-width: 1; stroke-dasharray: none; stroke-linecap: butt; stroke-dashoffset: 0; stroke-linejoin: miter; stroke-miterlimit: 4; fill: rgb(11,60,96); fill-rule: nonzero; opacity: 1;"  paint-order="stroke"  transform=" translate(3.7154999999999987, -2.6695)" d="M 0 0 L 5.339 5.339 H -8.601 H -12.77 V 0 Z" stroke-linecap="round" />
</g>
		<g transform="matrix(2.682531615624564 0 0 -2.682531615624564 88.56203764429483 65.00525213510693)"  >
<path style="stroke: none; stroke-width: 1; stroke-dasharray: none; stroke-linecap: butt; stroke-dashoffset: 0; stroke-linejoin: miter; stroke-miterlimit: 4; fill: rgb(11,60,96); fill-rule: nonzero; opacity: 1;"  paint-order="stroke"  transform=" translate(-1.6895000000000002, -2.6695)" d="M 0 0 L 5.01 5.01 L 5.339 5.339 H -1.96 L -1.96 0 Z" stroke-linecap="round" />
</g>
		<g transform="matrix(2.682531615624564 0 0 -2.682531615624564 -88.56498842907206 65.00552038826854)"  >
<path style="stroke: none; stroke-width: 1; stroke-dasharray: none; stroke-linecap: butt; stroke-dashoffset: 0; stroke-linejoin: miter; stroke-miterlimit: 4; fill: rgb(11,60,96); fill-rule: nonzero; opacity: 1;"  paint-order="stroke"  transform=" translate(-3.6494999999999997, 2.6694999999999993)" d="m 0 0 l 0.329 -0.329 l 5.01 -5.01 h 1.96 l 0 5.339 z" stroke-linecap="round" />
</g>
		<g transform="matrix(2.682531615624564 0 0 -2.682531615624564 -0.0009388860655121789 -125.24605986770314)"  >
<path style="stroke: none; stroke-width: 1; stroke-dasharray: none; stroke-linecap: butt; stroke-dashoffset: 0; stroke-linejoin: miter; stroke-miterlimit: 4; fill: rgb(11,60,96); fill-rule: nonzero; opacity: 1;"  paint-order="stroke"  transform=" translate(0, 3.813)" d="M 0 0 L 0.992 -2.852 L 4.009 -2.913 L 1.604 -4.737 L 2.478 -7.626 L 0 -5.902 l -2.478 -1.724 l 0.874 2.889 l -2.405 1.824 l 3.017 0.061 z" stroke-linecap="round" />
</g>
		<g transform="matrix(2.682531615624564 0 0 -2.682531615624564 -29.720974908731648 -106.21939962440115)"  >
<path style="stroke: none; stroke-width: 1; stroke-dasharray: none; stroke-linecap: butt; stroke-dashoffset: 0; stroke-linejoin: miter; stroke-miterlimit: 4; fill: rgb(11,60,96); fill-rule: nonzero; opacity: 1;"  paint-order="stroke"  transform=" translate(-0.0004999999999997229, 3.813)" d="M 0 0 L 0.992 -2.852 L 4.01 -2.913 L 1.605 -4.736 L 2.479 -7.626 L 0 -5.902 l -2.478 -1.724 l 0.874 2.89 l -2.405 1.823 l 3.019 0.061 z" stroke-linecap="round" />
</g>
		<g transform="matrix(2.682531615624564 0 0 -2.682531615624564 29.719097136600567 -106.21939962440115)"  >
<path style="stroke: none; stroke-width: 1; stroke-dasharray: none; stroke-linecap: butt; stroke-dashoffset: 0; stroke-linejoin: miter; stroke-miterlimit: 4; fill: rgb(11,60,96); fill-rule: nonzero; opacity: 1;"  paint-order="stroke"  transform=" translate(-0.0004999999999997229, 3.813)" d="M 0 0 L 0.991 -2.852 L 4.01 -2.913 L 1.603 -4.736 L 2.477 -7.626 L 0 -5.902 l -2.478 -1.724 l 0.874 2.89 l -2.405 1.823 l 3.017 0.061 z" stroke-linecap="round" />
</g>
		<g transform="matrix(2.682531615624564 0 0 -2.682531615624564 -0.0006706329039047887 -39.496254242648206)"  >
<path style="stroke: none; stroke-width: 1; stroke-dasharray: none; stroke-linecap: butt; stroke-dashoffset: 0; stroke-linejoin: miter; stroke-miterlimit: 4; fill: rgb(211,44,29); fill-rule: nonzero; opacity: 1;"  paint-order="stroke"  transform=" translate(-2.6695, 23.092)" d="m 0 0 v -32.419 v -11.096 l 2.669 -2.669 l 2.67 2.669 V -32.419 V 0 Z" stroke-linecap="round" />
</g>
		<g transform="matrix(2.682531615624564 0 0 -2.682531615624564 -28.64662099667396 -39.68537272154981)"  >
<path style="stroke: none; stroke-width: 1; stroke-dasharray: none; stroke-linecap: butt; stroke-dashoffset: 0; stroke-linejoin: miter; stroke-miterlimit: 4; fill: rgb(211,44,29); fill-rule: nonzero; opacity: 1;"  paint-order="stroke"  transform=" translate(-2.6695, -9.397499999999999)" d="M 0 0 V -0.417 L 5.339 -5.756 V 0 V 24.551 H 0 Z" stroke-linecap="round" />
</g>
		<g transform="matrix(2.682531615624564 0 0 -2.682531615624564 28.642597199250474 -39.68483621522671)"  >
<path style="stroke: none; stroke-width: 1; stroke-dasharray: none; stroke-linecap: butt; stroke-dashoffset: 0; stroke-linejoin: miter; stroke-miterlimit: 4; fill: rgb(211,44,29); fill-rule: nonzero; opacity: 1;"  paint-order="stroke"  transform=" translate(-2.669, 15.154)" d="m 0 0 v -24.551 v -5.757 l 5.338 5.339 V -24.551 V 0 Z" stroke-linecap="round" />
</g>
		<g transform="matrix(2.682531615624564 0 0 -2.682531615624564 -28.64662099667396 57.47806842166446)"  >
<path style="stroke: none; stroke-width: 1; stroke-dasharray: none; stroke-linecap: butt; stroke-dashoffset: 0; stroke-linejoin: miter; stroke-miterlimit: 4; fill: rgb(211,44,29); fill-rule: nonzero; opacity: 1;"  paint-order="stroke"  transform=" translate(-2.6695, 21.067)" d="m 0 0 v -36.795 l 5.339 -5.339 v 36.795 z" stroke-linecap="round" />
</g>
		<g transform="matrix(2.682531615624564 0 0 -2.682531615624564 -0.0009388860655121789 82.54283907857572)"  >
<path style="stroke: none; stroke-width: 1; stroke-dasharray: none; stroke-linecap: butt; stroke-dashoffset: 0; stroke-linejoin: miter; stroke-miterlimit: 4; fill: rgb(211,44,29); fill-rule: nonzero; opacity: 1;"  paint-order="stroke"  transform=" translate(0, 17.063000000000002)" d="M 0 0 L -2.669 2.669 V -34.126 L 0 -36.795 L 2.669 -34.126 V 2.669 Z" stroke-linecap="round" />
</g>
		<g transform="matrix(2.682531615624564 0 0 -2.682531615624564 28.642597199250474 57.47780016850285)"  >
<path style="stroke: none; stroke-width: 1; stroke-dasharray: none; stroke-linecap: butt; stroke-dashoffset: 0; stroke-linejoin: miter; stroke-miterlimit: 4; fill: rgb(211,44,29); fill-rule: nonzero; opacity: 1;"  paint-order="stroke"  transform=" translate(-2.669, 15.7275)" d="m 0 0 v -36.794 l 5.338 5.338 V 5.339 Z" stroke-linecap="round" />
</g>
		<g transform="matrix(2.682531615624564 0 0 -2.682531615624564 -57.291766600959306 42.595651271340984)"  >
<path style="stroke: none; stroke-width: 1; stroke-dasharray: none; stroke-linecap: butt; stroke-dashoffset: 0; stroke-linejoin: miter; stroke-miterlimit: 4; fill: rgb(211,44,29); fill-rule: nonzero; opacity: 1;"  paint-order="stroke"  transform=" translate(2.6695, -5.684500000000002)" d="m 0 0 v 5.472 v 5.339 v 5.471 v 5.339 H -5.339 V 16.282 V 10.811 V 5.472 V 0 V -4.914 L 0 -10.252 v 4.913 z" stroke-linecap="round" />
</g>
		<g transform="matrix(2.682531615624564 0 0 -2.682531615624564 57.28693804405111 42.595651271340984)"  >
<path style="stroke: none; stroke-width: 1; stroke-dasharray: none; stroke-linecap: butt; stroke-dashoffset: 0; stroke-linejoin: miter; stroke-miterlimit: 4; fill: rgb(211,44,29); fill-rule: nonzero; opacity: 1;"  paint-order="stroke"  transform=" translate(2.6695, -5.684500000000002)" d="m 0 0 v 5.472 v 5.339 v 5.471 v 5.339 H -5.339 V 16.282 V 10.811 V 5.472 V 0 V -5.339 V -10.252 L 0 -4.914 Z" stroke-linecap="round" />
</g>
</g>
</g>
<g transform="matrix(1.9692780337941629 0 0 1.9692780337941629 815.4053877898007 593.4997192779516)" id="tagline-faad253c-3f4a-44a3-9999-7f1376a05f8b-logo-path"  >
<path style="stroke: none; stroke-width: 0; stroke-dasharray: none; stroke-linecap: butt; stroke-dashoffset: 0; stroke-linejoin: miter; stroke-miterlimit: 4; fill: rgb(211,44,29); fill-rule: nonzero; opacity: 1;"  paint-order="stroke"  transform=" translate(-227.295, 6.46)" d="M 4.48 0 L 1.35 0 L 1.35 -12.92 L 7.31 -12.92 Q 8.51 -12.92 9.46 -12.5 Q 10.42 -12.08 11.01 -11.37 Q 11.6 -10.66 11.91 -9.78 Q 12.22 -8.91 12.22 -7.94 L 12.22 -7.94 Q 12.22 -7.17 12.03 -6.44 Q 11.84 -5.71 11.43 -5.07 Q 11.03 -4.43 10.46 -3.96 Q 9.88 -3.48 9.07 -3.2 Q 8.26 -2.92 7.29 -2.92 L 7.29 -2.92 L 4.48 -2.92 L 4.48 0 Z M 4.48 -10.03 L 4.48 -5.8 L 6.96 -5.8 Q 7.92 -5.8 8.49 -6.35 Q 9.06 -6.91 9.06 -7.94 L 9.06 -7.94 Q 9.06 -8.95 8.5 -9.48 Q 7.93 -10.01 6.96 -10.03 L 6.96 -10.03 L 4.48 -10.03 Z M 17.73 0 L 14.61 0 L 14.61 -12.92 L 20.86 -12.92 Q 22.83 -12.92 24.14 -11.55 Q 25.46 -10.17 25.46 -8.07 L 25.46 -8.07 Q 25.46 -6.69 24.84 -5.58 Q 24.21 -4.46 23.16 -3.9 L 23.16 -3.9 L 25.82 0 L 21.94 0 L 20 -3.21 L 17.73 -3.21 L 17.73 0 Z M 17.73 -10.03 L 17.73 -6.1 L 20.4 -6.1 Q 21.2 -6.1 21.76 -6.68 Q 22.32 -7.25 22.32 -8.07 L 22.32 -8.07 Q 22.32 -8.87 21.76 -9.45 Q 21.21 -10.03 20.42 -10.03 L 20.42 -10.03 L 17.73 -10.03 Z M 26.82 -6.46 L 26.82 -6.46 Q 26.82 -7.81 27.34 -9.05 Q 27.87 -10.28 28.76 -11.18 Q 29.65 -12.08 30.88 -12.61 Q 32.12 -13.15 33.48 -13.15 L 33.48 -13.15 Q 34.83 -13.15 36.07 -12.61 Q 37.3 -12.08 38.19 -11.18 Q 39.09 -10.28 39.62 -9.04 Q 40.15 -7.8 40.15 -6.46 L 40.15 -6.46 Q 40.15 -5.1 39.62 -3.86 Q 39.09 -2.63 38.2 -1.73 Q 37.3 -0.83 36.07 -0.3 Q 34.83 0.23 33.48 0.23 L 33.48 0.23 Q 31.66 0.23 30.13 -0.67 Q 28.59 -1.57 27.71 -3.1 Q 26.82 -4.64 26.82 -6.46 Z M 29.67 -6.46 L 29.67 -6.46 Q 29.67 -4.88 30.79 -3.77 Q 31.9 -2.66 33.48 -2.66 L 33.48 -2.66 Q 35.04 -2.66 36.15 -3.77 Q 37.27 -4.88 37.27 -6.46 L 37.27 -6.46 Q 37.27 -8.02 36.15 -9.13 Q 35.04 -10.24 33.48 -10.24 L 33.48 -10.24 Q 31.9 -10.24 30.79 -9.13 Q 29.67 -8.02 29.67 -6.46 Z M 47.12 0 L 41.4 -12.92 L 44.84 -12.92 L 48.85 -3.68 L 52.84 -12.92 L 56.28 -12.92 L 50.54 0 L 47.12 0 Z M 61.46 0 L 58.35 0 L 58.35 -12.92 L 61.46 -12.92 L 61.46 0 Z M 70.06 0 L 64.35 0 L 64.35 -12.9 L 70.06 -12.92 Q 70.09 -12.92 70.12 -12.92 L 70.12 -12.92 Q 71.65 -12.93 72.92 -12.45 L 72.92 -12.45 Q 74.21 -11.97 75.07 -11.1 Q 75.94 -10.24 76.41 -9.05 Q 76.88 -7.87 76.88 -6.48 L 76.88 -6.48 Q 76.88 -4.61 76.02 -3.14 Q 75.17 -1.66 73.61 -0.83 Q 72.05 0 70.06 0 L 70.06 0 Z M 67.46 -10.03 L 67.46 -2.89 L 70.06 -2.89 Q 71.7 -2.89 72.71 -3.87 Q 73.73 -4.86 73.73 -6.48 L 73.73 -6.48 Q 73.73 -8.18 72.74 -9.11 Q 71.75 -10.03 70.06 -10.03 L 70.06 -10.03 L 67.46 -10.03 Z M 82.19 0 L 79.07 0 L 79.07 -12.92 L 82.19 -12.92 L 82.19 0 Z M 88.01 0 L 84.88 0 L 84.88 -12.92 L 88.01 -12.92 L 94.55 -5.04 L 94.55 -12.92 L 97.69 -12.92 L 97.69 0 L 94.55 0 L 88.01 -7.9 L 88.01 0 Z M 99.77 -6.46 L 99.77 -6.46 Q 99.77 -7.79 100.3 -9.02 Q 100.83 -10.24 101.74 -11.15 Q 102.66 -12.06 103.98 -12.6 Q 105.3 -13.15 106.78 -13.15 L 106.78 -13.15 Q 108.6 -13.15 110.08 -12.39 Q 111.57 -11.63 112.57 -10.32 L 112.57 -10.32 L 109.88 -8.95 Q 108.87 -10.22 106.75 -10.22 L 106.75 -10.22 Q 105.06 -10.22 103.98 -9.17 Q 102.9 -8.11 102.9 -6.49 L 102.9 -6.49 Q 102.9 -4.93 104.01 -3.8 Q 105.11 -2.68 106.78 -2.68 L 106.78 -2.68 Q 108.8 -2.68 109.96 -3.77 L 109.96 -3.77 L 109.96 -5.02 L 106.02 -5.02 L 106.02 -7.41 L 112.71 -7.41 L 112.71 -2.63 Q 112.66 -2.52 112.43 -2.25 Q 112.2 -1.99 111.68 -1.54 Q 111.15 -1.1 110.5 -0.72 Q 109.84 -0.33 108.86 -0.05 Q 107.87 0.23 106.8 0.23 L 106.8 0.23 Q 105.24 0.23 103.91 -0.32 Q 102.57 -0.88 101.68 -1.81 Q 100.78 -2.74 100.27 -3.94 Q 99.77 -5.15 99.77 -6.46 Z M 122.68 0 L 119.57 0 L 119.57 -12.92 L 129.47 -12.92 L 129.47 -10.03 L 122.68 -10.03 L 122.68 -7.07 L 128.34 -7.07 L 128.34 -4.2 L 122.68 -4.2 L 122.68 0 Z M 135.01 0 L 131.9 0 L 131.9 -12.92 L 138.14 -12.92 Q 140.12 -12.92 141.43 -11.55 Q 142.74 -10.17 142.74 -8.07 L 142.74 -8.07 Q 142.74 -6.69 142.12 -5.58 Q 141.5 -4.46 140.44 -3.9 L 140.44 -3.9 L 143.1 0 L 139.23 0 L 137.29 -3.21 L 135.01 -3.21 L 135.01 0 Z M 135.01 -10.03 L 135.01 -6.1 L 137.69 -6.1 Q 138.48 -6.1 139.04 -6.68 Q 139.61 -7.25 139.61 -8.07 L 139.61 -8.07 Q 139.61 -8.87 139.05 -9.45 Q 138.49 -10.03 137.7 -10.03 L 137.7 -10.03 L 135.01 -10.03 Z M 155.22 0 L 145.32 0 L 145.32 -12.92 L 155.22 -12.92 L 155.22 -10.03 L 148.44 -10.03 L 148.44 -7.81 L 154.1 -7.81 L 154.1 -5.11 L 148.44 -5.11 L 148.44 -2.89 L 155.22 -2.89 L 155.22 0 Z M 167.64 0 L 157.74 0 L 157.74 -12.92 L 167.64 -12.92 L 167.64 -10.03 L 160.86 -10.03 L 160.86 -7.81 L 166.52 -7.81 L 166.52 -5.11 L 160.86 -5.11 L 160.86 -2.89 L 167.64 -2.89 L 167.64 0 Z M 177.78 0 L 174.66 0 L 174.66 -12.92 L 180.91 -12.92 Q 182.88 -12.92 184.2 -11.55 Q 185.51 -10.17 185.51 -8.07 L 185.51 -8.07 Q 185.51 -6.69 184.89 -5.58 Q 184.27 -4.46 183.21 -3.9 L 183.21 -3.9 L 185.87 0 L 181.99 0 L 180.05 -3.21 L 177.78 -3.21 L 177.78 0 Z M 177.78 -10.03 L 177.78 -6.1 L 180.45 -6.1 Q 181.25 -6.1 181.81 -6.68 Q 182.37 -7.25 182.37 -8.07 L 182.37 -8.07 Q 182.37 -8.87 181.82 -9.45 Q 181.26 -10.03 180.47 -10.03 L 180.47 -10.03 L 177.78 -10.03 Z M 197.99 0 L 188.09 0 L 188.09 -12.92 L 197.99 -12.92 L 197.99 -10.03 L 191.21 -10.03 L 191.21 -7.81 L 196.87 -7.81 L 196.87 -5.11 L 191.21 -5.11 L 191.21 -2.89 L 197.99 -2.89 L 197.99 0 Z M 199.92 -4.52 L 199.92 -4.52 L 203.02 -4.52 Q 203.03 -4.43 203.06 -4.3 Q 203.09 -4.16 203.27 -3.8 Q 203.45 -3.45 203.73 -3.18 Q 204 -2.91 204.56 -2.69 Q 205.11 -2.47 205.83 -2.47 L 205.83 -2.47 Q 206.79 -2.47 207.26 -2.81 Q 207.73 -3.15 207.73 -3.61 L 207.73 -3.61 Q 207.73 -3.85 207.59 -4.04 Q 207.46 -4.24 207.28 -4.37 Q 207.1 -4.5 206.75 -4.62 Q 206.41 -4.75 206.15 -4.82 Q 205.89 -4.89 205.45 -5 L 205.45 -5 Q 203.6 -5.44 202.73 -5.8 L 202.73 -5.8 Q 200.11 -6.88 200.11 -9.05 L 200.11 -9.05 Q 200.11 -10.21 200.81 -11.15 Q 201.51 -12.09 202.71 -12.62 Q 203.92 -13.15 205.37 -13.15 L 205.37 -13.15 Q 206.58 -13.15 207.59 -12.76 Q 208.59 -12.37 209.22 -11.74 Q 209.84 -11.11 210.18 -10.36 Q 210.52 -9.6 210.52 -8.83 L 210.52 -8.83 L 207.42 -8.83 Q 207.42 -9.38 206.84 -9.87 Q 206.26 -10.35 205.34 -10.35 L 205.34 -10.35 Q 204.57 -10.35 203.92 -10.03 Q 203.27 -9.71 203.27 -9.19 L 203.27 -9.19 Q 203.27 -8.76 203.83 -8.5 Q 204.39 -8.25 205.94 -7.85 L 205.94 -7.85 Q 207.7 -7.39 208.48 -7.04 L 208.48 -7.04 Q 210.6 -6.09 210.82 -4.26 L 210.82 -4.26 Q 210.85 -4.03 210.85 -3.79 L 210.85 -3.79 Q 210.85 -1.96 209.4 -0.86 Q 207.96 0.23 205.66 0.23 L 205.66 0.23 Q 204.49 0.23 203.51 -0.07 Q 202.53 -0.37 201.88 -0.86 Q 201.23 -1.35 200.78 -1.98 Q 200.33 -2.61 200.12 -3.25 Q 199.92 -3.9 199.92 -4.52 Z M 212.28 -6.46 L 212.28 -6.46 Q 212.28 -7.81 212.81 -9.05 Q 213.33 -10.28 214.22 -11.18 Q 215.11 -12.08 216.35 -12.61 Q 217.58 -13.15 218.95 -13.15 L 218.95 -13.15 Q 220.29 -13.15 221.53 -12.61 Q 222.77 -12.08 223.66 -11.18 Q 224.55 -10.28 225.08 -9.04 Q 225.62 -7.8 225.62 -6.46 L 225.62 -6.46 Q 225.62 -5.1 225.09 -3.86 Q 224.56 -2.63 223.66 -1.73 Q 222.77 -0.83 221.53 -0.3 Q 220.29 0.23 218.95 0.23 L 218.95 0.23 Q 217.13 0.23 215.59 -0.67 Q 214.06 -1.57 213.17 -3.1 Q 212.28 -4.64 212.28 -6.46 Z M 215.13 -6.46 L 215.13 -6.46 Q 215.13 -4.88 216.25 -3.77 Q 217.37 -2.66 218.95 -2.66 L 218.95 -2.66 Q 220.5 -2.66 221.62 -3.77 Q 222.73 -4.88 222.73 -6.46 L 222.73 -6.46 Q 222.73 -8.02 221.62 -9.13 Q 220.5 -10.24 218.95 -10.24 L 218.95 -10.24 Q 217.37 -10.24 216.25 -9.13 Q 215.13 -8.02 215.13 -6.46 Z M 227.02 -6.63 L 227.02 -6.63 L 227.02 -12.92 L 230.13 -12.92 L 230.13 -6.63 Q 230.13 -4.75 230.92 -3.71 Q 231.71 -2.66 233.18 -2.66 L 233.18 -2.66 Q 234.63 -2.66 235.48 -3.72 Q 236.33 -4.78 236.33 -6.63 L 236.33 -6.63 L 236.33 -12.92 L 239.49 -12.92 L 239.49 -6.63 Q 239.49 -5.06 239.01 -3.76 Q 238.53 -2.46 237.69 -1.59 Q 236.84 -0.72 235.69 -0.25 Q 234.53 0.23 233.18 0.23 L 233.18 0.23 Q 230.39 0.23 228.71 -1.61 Q 227.02 -3.46 227.02 -6.63 Z M 244.84 0 L 241.72 0 L 241.72 -12.92 L 247.96 -12.92 Q 249.94 -12.92 251.25 -11.55 Q 252.57 -10.17 252.57 -8.07 L 252.57 -8.07 Q 252.57 -6.69 251.94 -5.58 Q 251.32 -4.46 250.27 -3.9 L 250.27 -3.9 L 252.93 0 L 249.05 0 L 247.11 -3.21 L 244.84 -3.21 L 244.84 0 Z M 244.84 -10.03 L 244.84 -6.1 L 247.51 -6.1 Q 248.31 -6.1 248.87 -6.68 Q 249.43 -7.25 249.43 -8.07 L 249.43 -8.07 Q 249.43 -8.87 248.87 -9.45 Q 248.32 -10.03 247.53 -10.03 L 247.53 -10.03 L 244.84 -10.03 Z M 254.13 -6.56 L 254.13 -6.56 Q 254.13 -7.9 254.66 -9.1 Q 255.19 -10.31 256.11 -11.2 Q 257.03 -12.09 258.34 -12.62 Q 259.65 -13.15 261.13 -13.15 L 261.13 -13.15 Q 263.15 -13.15 264.73 -12.28 Q 266.32 -11.41 267.21 -9.92 L 267.21 -9.92 L 264.56 -8.38 Q 264.09 -9.29 263.21 -9.81 Q 262.33 -10.33 261.13 -10.33 L 261.13 -10.33 Q 259.45 -10.33 258.37 -9.25 Q 257.29 -8.17 257.29 -6.56 L 257.29 -6.56 Q 257.29 -5.54 257.77 -4.66 Q 258.25 -3.78 259.14 -3.24 Q 260.03 -2.7 261.13 -2.7 L 261.13 -2.7 Q 262.28 -2.7 263.16 -3.23 Q 264.03 -3.76 264.52 -4.66 L 264.52 -4.66 L 267.17 -3.14 Q 266.26 -1.61 264.68 -0.69 Q 263.11 0.23 261.13 0.23 L 261.13 0.23 Q 259.64 0.23 258.33 -0.3 Q 257.03 -0.83 256.11 -1.73 Q 255.19 -2.63 254.66 -3.89 Q 254.13 -5.14 254.13 -6.56 Z M 279.16 0 L 269.26 0 L 269.26 -12.92 L 279.16 -12.92 L 279.16 -10.03 L 272.37 -10.03 L 272.37 -7.81 L 278.03 -7.81 L 278.03 -5.11 L 272.37 -5.11 L 272.37 -2.89 L 279.16 -2.89 L 279.16 0 Z M 281.08 -4.52 L 281.08 -4.52 L 284.18 -4.52 Q 284.19 -4.43 284.23 -4.3 Q 284.26 -4.16 284.44 -3.8 Q 284.62 -3.45 284.89 -3.18 Q 285.17 -2.91 285.72 -2.69 Q 286.28 -2.47 286.99 -2.47 L 286.99 -2.47 Q 287.96 -2.47 288.43 -2.81 Q 288.9 -3.15 288.9 -3.61 L 288.9 -3.61 Q 288.9 -3.85 288.76 -4.04 Q 288.63 -4.24 288.45 -4.37 Q 288.27 -4.5 287.92 -4.62 Q 287.58 -4.75 287.32 -4.82 Q 287.06 -4.89 286.61 -5 L 286.61 -5 Q 284.77 -5.44 283.9 -5.8 L 283.9 -5.8 Q 281.28 -6.88 281.28 -9.05 L 281.28 -9.05 Q 281.28 -10.21 281.98 -11.15 Q 282.68 -12.09 283.88 -12.62 Q 285.08 -13.15 286.54 -13.15 L 286.54 -13.15 Q 287.75 -13.15 288.75 -12.76 Q 289.76 -12.37 290.39 -11.74 Q 291.01 -11.11 291.35 -10.36 Q 291.69 -9.6 291.69 -8.83 L 291.69 -8.83 L 288.59 -8.83 Q 288.59 -9.38 288.01 -9.87 Q 287.43 -10.35 286.5 -10.35 L 286.5 -10.35 Q 285.73 -10.35 285.08 -10.03 Q 284.43 -9.71 284.43 -9.19 L 284.43 -9.19 Q 284.43 -8.76 285 -8.5 Q 285.56 -8.25 287.11 -7.85 L 287.11 -7.85 Q 288.87 -7.39 289.65 -7.04 L 289.65 -7.04 Q 291.76 -6.09 291.99 -4.26 L 291.99 -4.26 Q 292.01 -4.03 292.01 -3.79 L 292.01 -3.79 Q 292.01 -1.96 290.57 -0.86 Q 289.13 0.23 286.83 0.23 L 286.83 0.23 Q 285.66 0.23 284.68 -0.07 Q 283.7 -0.37 283.05 -0.86 Q 282.4 -1.35 281.95 -1.98 Q 281.49 -2.61 281.29 -3.25 Q 281.08 -3.9 281.08 -4.52 Z M 301.9 0 L 298.79 0 L 298.79 -12.92 L 308.69 -12.92 L 308.69 -10.03 L 301.9 -10.03 L 301.9 -7.07 L 307.56 -7.07 L 307.56 -4.2 L 301.9 -4.2 L 301.9 0 Z M 310.28 -6.46 L 310.28 -6.46 Q 310.28 -7.81 310.8 -9.05 Q 311.33 -10.28 312.22 -11.18 Q 313.11 -12.08 314.34 -12.61 Q 315.58 -13.15 316.94 -13.15 L 316.94 -13.15 Q 318.29 -13.15 319.53 -12.61 Q 320.76 -12.08 321.65 -11.18 Q 322.55 -10.28 323.08 -9.04 Q 323.61 -7.8 323.61 -6.46 L 323.61 -6.46 Q 323.61 -5.1 323.08 -3.86 Q 322.55 -2.63 321.66 -1.73 Q 320.76 -0.83 319.53 -0.3 Q 318.29 0.23 316.94 0.23 L 316.94 0.23 Q 315.12 0.23 313.59 -0.67 Q 312.05 -1.57 311.17 -3.1 Q 310.28 -4.64 310.28 -6.46 Z M 313.13 -6.46 L 313.13 -6.46 Q 313.13 -4.88 314.25 -3.77 Q 315.36 -2.66 316.94 -2.66 L 316.94 -2.66 Q 318.5 -2.66 319.61 -3.77 Q 320.73 -4.88 320.73 -6.46 L 320.73 -6.46 Q 320.73 -8.02 319.61 -9.13 Q 318.5 -10.24 316.94 -10.24 L 316.94 -10.24 Q 315.36 -10.24 314.25 -9.13 Q 313.13 -8.02 313.13 -6.46 Z M 328.78 0 L 325.66 0 L 325.66 -12.92 L 331.91 -12.92 Q 333.88 -12.92 335.2 -11.55 Q 336.51 -10.17 336.51 -8.07 L 336.51 -8.07 Q 336.51 -6.69 335.89 -5.58 Q 335.26 -4.46 334.21 -3.9 L 334.21 -3.9 L 336.87 0 L 332.99 0 L 331.05 -3.21 L 328.78 -3.21 L 328.78 0 Z M 328.78 -10.03 L 328.78 -6.1 L 331.45 -6.1 Q 332.25 -6.1 332.81 -6.68 Q 333.37 -7.25 333.37 -8.07 L 333.37 -8.07 Q 333.37 -8.87 332.82 -9.45 Q 332.26 -10.03 331.47 -10.03 L 331.47 -10.03 L 328.78 -10.03 Z M 348.5 0 L 342.79 -12.92 L 346.22 -12.92 L 350.23 -3.68 L 354.23 -12.92 L 357.66 -12.92 L 351.93 0 L 348.5 0 Z M 369.63 0 L 359.73 0 L 359.73 -12.92 L 369.63 -12.92 L 369.63 -10.03 L 362.85 -10.03 L 362.85 -7.81 L 368.51 -7.81 L 368.51 -5.11 L 362.85 -5.11 L 362.85 -2.89 L 369.63 -2.89 L 369.63 0 Z M 375.96 -10.03 L 371.39 -10.03 L 371.39 -12.92 L 383.7 -12.92 L 383.7 -10.03 L 379.12 -10.03 L 379.12 0 L 375.96 0 L 375.96 -10.03 Z M 395.73 0 L 385.83 0 L 385.83 -12.92 L 395.73 -12.92 L 395.73 -10.03 L 388.94 -10.03 L 388.94 -7.81 L 394.6 -7.81 L 394.6 -5.11 L 388.94 -5.11 L 388.94 -2.89 L 395.73 -2.89 L 395.73 0 Z M 401.37 0 L 398.25 0 L 398.25 -12.92 L 404.49 -12.92 Q 406.47 -12.92 407.78 -11.55 Q 409.09 -10.17 409.09 -8.07 L 409.09 -8.07 Q 409.09 -6.69 408.47 -5.58 Q 407.85 -4.46 406.79 -3.9 L 406.79 -3.9 L 409.46 0 L 405.58 0 L 403.64 -3.21 L 401.37 -3.21 L 401.37 0 Z M 401.37 -10.03 L 401.37 -6.1 L 404.04 -6.1 Q 404.84 -6.1 405.4 -6.68 Q 405.96 -7.25 405.96 -8.07 L 405.96 -8.07 Q 405.96 -8.87 405.4 -9.45 Q 404.84 -10.03 404.06 -10.03 L 404.06 -10.03 L 401.37 -10.03 Z M 414.21 0 L 410.91 0 L 416.44 -12.92 L 419.91 -12.92 L 425.46 0 L 422.14 0 L 421.3 -2.01 L 415.07 -2.01 L 414.21 0 Z M 418.2 -9.39 L 416.15 -4.56 L 420.22 -4.56 L 418.2 -9.39 Z M 430.52 0 L 427.38 0 L 427.38 -12.92 L 430.52 -12.92 L 437.06 -5.04 L 437.06 -12.92 L 440.19 -12.92 L 440.19 0 L 437.06 0 L 430.52 -7.9 L 430.52 0 Z M 442.31 -4.52 L 442.31 -4.52 L 445.41 -4.52 Q 445.41 -4.43 445.45 -4.3 Q 445.48 -4.16 445.66 -3.8 Q 445.84 -3.45 446.11 -3.18 Q 446.39 -2.91 446.95 -2.69 Q 447.5 -2.47 448.22 -2.47 L 448.22 -2.47 Q 449.18 -2.47 449.65 -2.81 Q 450.12 -3.15 450.12 -3.61 L 450.12 -3.61 Q 450.12 -3.85 449.98 -4.04 Q 449.85 -4.24 449.67 -4.37 Q 449.49 -4.5 449.14 -4.62 Q 448.8 -4.75 448.54 -4.82 Q 448.28 -4.89 447.84 -5 L 447.84 -5 Q 445.99 -5.44 445.12 -5.8 L 445.12 -5.8 Q 442.5 -6.88 442.5 -9.05 L 442.5 -9.05 Q 442.5 -10.21 443.2 -11.15 Q 443.9 -12.09 445.1 -12.62 Q 446.31 -13.15 447.76 -13.15 L 447.76 -13.15 Q 448.97 -13.15 449.97 -12.76 Q 450.98 -12.37 451.61 -11.74 Q 452.23 -11.11 452.57 -10.36 Q 452.91 -9.6 452.91 -8.83 L 452.91 -8.83 L 449.81 -8.83 Q 449.81 -9.38 449.23 -9.87 Q 448.65 -10.35 447.72 -10.35 L 447.72 -10.35 Q 446.95 -10.35 446.31 -10.03 Q 445.66 -9.71 445.66 -9.19 L 445.66 -9.19 Q 445.66 -8.76 446.22 -8.5 Q 446.78 -8.25 448.33 -7.85 L 448.33 -7.85 Q 450.09 -7.39 450.87 -7.04 L 450.87 -7.04 Q 452.98 -6.09 453.21 -4.26 L 453.21 -4.26 Q 453.24 -4.03 453.24 -3.79 L 453.24 -3.79 Q 453.24 -1.96 451.79 -0.86 Q 450.35 0.23 448.05 0.23 L 448.05 0.23 Q 446.88 0.23 445.9 -0.07 Q 444.92 -0.37 444.27 -0.86 Q 443.62 -1.35 443.17 -1.98 Q 442.71 -2.61 442.51 -3.25 Q 442.31 -3.9 442.31 -4.52 Z" stroke-linecap="round" />
</g>
</svg>